<svg xmlns="http://www.w3.org/2000/svg" viewBox="0 0 919.26 488.81"><defs><style>.cls-1,.cls-3{fill:none;stroke:#fff;}.cls-1{stroke-linejoin:round;stroke-width:15px;}.cls-2,.cls-4{fill:#fff;}.cls-3{stroke-miterlimit:10;stroke-width:8px;}.cls-4{font-size:56.31px;font-family:BebasNeue-Regular, Bebas Neue;}.cls-5{letter-spacing:0em;}.cls-6{letter-spacing:0em;}.cls-7{letter-spacing:0em;}.cls-8{letter-spacing:0em;}</style></defs><g id="Layer_2" data-name="Layer 2"><g id="Layer_1-2" data-name="Layer 1"><rect class="cls-1" x="7.5" y="7.5" width="904.26" height="473.81" rx="38.77"/><path class="cls-2" d="M494.94,375.3s-68.72-6.25-75.41,30.34,37-5.8,78.09,17,54.88,41.94,70,36.59,74.52-21.87,83-38.82,14.73-122.71-54-145.47c-14.27-4-15.61,1.79-9.81,11.16-15.62-12.94-35.7-18.74-39.71-7.59A60.08,60.08,0,0,1,557,298.55s-16.06-27.22-28.56-24.09S505.2,285.17,511,295s11.6,17.85,11.6,17.85-88.79-97.72-93.7-94.15-13.38,13.84-1.34,33.91S511.9,353,494.94,375.3Z"/><line class="cls-3" x1="425.24" y1="123.78" x2="425.24" y2="196.23"/><path class="cls-2" d="M425.24,75.49c-8.43,22.72-22.81,50.91-38.05,68.38l38.05-13.76,38,13.76C448,126.4,433.66,98.21,425.24,75.49Z"/><line class="cls-3" x1="425.24" y1="336.64" x2="425.24" y2="264.18"/><path class="cls-2" d="M425.24,384.92c8.43-22.72,22.81-50.91,38.05-68.38L425.24,330.3l-38-13.76C402.43,334,416.82,362.2,425.24,384.92Z"/><line class="cls-3" x1="311.8" y1="226.49" x2="384.25" y2="226.49"/><path class="cls-2" d="M263.52,226.49c22.72,8.43,50.91,22.82,68.38,38.05l-13.76-38.05,13.76-38C314.43,203.69,286.24,218.07,263.52,226.49Z"/><line class="cls-3" x1="532.09" y1="226.49" x2="459.63" y2="226.49"/><path class="cls-2" d="M580.37,226.49c-22.72-8.43-50.91-22.81-68.38-38l13.76,38-13.76,38C529.46,249.3,557.65,234.92,580.37,226.49Z"/><text class="cls-4" transform="translate(49.73 80.88)">Sentuh <tspan class="cls-5" x="141.23" y="0">D</tspan><tspan class="cls-6" x="163.98" y="0">an G</tspan><tspan class="cls-7" x="241.63" y="0">e</tspan><tspan class="cls-6" x="262.18" y="0">se</tspan><tspan class="cls-8" x="303.57" y="0">r</tspan><tspan x="326.54" y="0">.</tspan></text></g></g></svg>